# xmcd
#
# Track frame offsets:
#	150
#	15635
#	36957
#	51462
#	69585
#	84325
#	105232
#	120185
#	138537
#	155762
#	172355
#	184752
#	200767
#	213607
#	233542
#	250210
#	269812
#	284272
#	303535
#	318725
#
# Disc length: 4553
#
# Revision: 3
# Processed by: cddbd v1.5.1PL0 Copyright (c) Steve Scherf et al.
# Submitted via: audiograbber 1.80
# Normalized: r1:TDELIM( - );r2:TSWAP
#
DISCID=3111c714
DTITLE=Various Artist - Independance Day - Best New Women Of Country
DYEAR=1900
DGENRE=
TTITLE0=Martina McBride - Independance Day
TTITLE1=Trisha Yearwood - On A Bus To St. Cloud
TTITLE2=Mindy McReady - Guys Do It All The Time
TTITLE3=Sherrie Austin - One Solitary Tear
TTITLE4=Matraca Berg - That Train Don't Run
TTITLE5=Dolly Parton with Alison Krauss - Just When I Needed You Most
TTITLE6=Suzt Bogguss - No Way Out
TTITLE7=Sara Evans - Three Chords And The Truth
TTITLE8=Chely Wright - Shut Up And Drive
TTITLE9=Kris Tyler - What A Woman Knows
TTITLE10=Lorrie Morgan - What Part Of No
TTITLE11=Lee Ann Womack - Fool
TTITLE12=Pam Tillis - Mi Vida Loca
TTITLE13=Wynonna - She Is His Only Need
TTITLE14=Kathy Mattea - 455 Rocket
TTITLE15=Kate Campbell - Mississippi And Me
TTITLE16=Kim Richey - I Know
TTITLE17=Gretchen Peters - Secret Of Life
TTITLE18=Tanya Tucker - Delta Dawn
TTITLE19=Mary Chapin Carpenter - Sudden Gift Of Fate
EXTD=
EXTT0=
EXTT1=
EXTT2=
EXTT3=
EXTT4=
EXTT5=
EXTT6=
EXTT7=
EXTT8=
EXTT9=
EXTT10=
EXTT11=
EXTT12=
EXTT13=
EXTT14=
EXTT15=
EXTT16=
EXTT17=
EXTT18=
EXTT19=
PLAYORDER=
